<?xml version="1.0" encoding="utf-8"?>
<!-- Generator: Adobe Illustrator 22.0.1, SVG Export Plug-In . SVG Version: 6.00 Build 0)  -->
<svg version="1.1" id="Layer_1" xmlns="http://www.w3.org/2000/svg" xmlns:xlink="http://www.w3.org/1999/xlink" x="0px" y="0px"
	 viewBox="0 0 500 500" style="enable-background:new 0 0 500 500;" xml:space="preserve">
<style type="text/css">
	.st0{fill:#EC0928;}
	.st1{fill:#ffffff;}
</style>
<g>
	<path class="st0" d="M466.3,250.4c0,40.7,0,81.5,0,122.2c0,1.3-0.4,2-1.5,2.7c-31.2,17.9-62.3,35.9-93.5,53.9
		c-33.4,19.3-66.8,38.6-100.2,57.9c-6.1,3.5-12.3,7-18.4,10.6c-0.9,0.5-1.5,0.5-2.4,0c-27.2-15.7-54.4-31.4-81.6-47.1
		c-29-16.7-57.9-33.4-86.9-50.1c-14.6-8.4-29.2-16.9-43.8-25.2c-1-0.6-1.4-1.3-1.4-2.4c0-81.6,0-163.1,0-244.7
		c0-1.2,0.4-1.9,1.5-2.6c28.4-16.4,56.8-32.8,85.3-49.2c24.5-14.2,49.1-28.3,73.6-42.5c17.7-10.2,35.5-20.5,53.2-30.7
		c0.9-0.5,1.6-0.5,2.5,0c36.8,21.3,73.6,42.5,110.4,63.7c30.1,17.4,60.2,34.7,90.2,52c3.8,2.2,7.6,4.5,11.5,6.6
		c1.1,0.6,1.5,1.3,1.5,2.6c0,20.2,0,40.3,0,60.5C466.3,209.1,466.3,229.7,466.3,250.4z"/>
</g>
<path class="st1" d="M344.1,159.4L92.8,113.5l132.7,333.1L410,222L344.1,159.4z M340.4,180.6l38.2,36.3l-103.9,18.7L340.4,180.6z
	 M251.3,231.7l-110.3-91.2l180,32.9L251.3,231.7z M242.8,248L225,396.6l-97.1-243.7L242.8,248z M259.9,256.5l115.7-20.8L243,397
	L259.9,256.5z"/>
</svg>
