<svg id="icon_abct" xmlns="http://www.w3.org/2000/svg" xmlns:xlink="http://www.w3.org/1999/xlink" width="150" height="150" viewBox="0 0 150 150">
  <defs>
    <style>
      .cls-1 {
        fill: url(#linear-gradient);
      }

      .cls-2 {
        fill: #fff;
      }
    </style>
    <linearGradient id="linear-gradient" x1="0.227" y1="0.093" x2="0.785" y2="0.932" gradientUnits="objectBoundingBox">
      <stop offset="0" stop-color="#ff768a"/>
      <stop offset="1" stop-color="#f4398a"/>
    </linearGradient>
  </defs>
  <path id="路径_981" data-name="路径 981" class="cls-1" d="M75,0A75,75,0,1,1,0,75,75,75,0,0,1,75,0Z"/>
  <path id="联合_3" data-name="联合 3" class="cls-2" d="M74.258,57.805q-3.548-3.853-3.549-10.876v-32.2q0-7.022,3.549-10.876T84.566,0q6.747,0,10.3,3.853t3.547,10.876v4.248l-8.891,2.091V14.129q0-5.563-4.7-5.566t-4.705,5.566V47.613q0,5.488,4.705,5.482t4.7-5.482V40.541l8.891-2.091v8.479q0,7.023-3.547,10.876t-10.3,3.853Q77.811,61.659,74.258,57.805Zm-37.494,3V.856h14.2q7.266,0,10.605,3.381t3.33,10.409v2.4a16.4,16.4,0,0,1-1.5,7.534,8.737,8.737,0,0,1-4.57,4.2v.172q7.008,2.394,7.014,12.5V46.59q0,6.931-3.637,10.576T51.559,60.8Zm9.408-8.563h5.387a4.713,4.713,0,0,0,3.676-1.323c.795-.89,1.2-2.413,1.2-4.587V41.108q0-4.112-1.4-5.694t-4.66-1.585H46.172Zm0-26.979h3.676a5.655,5.655,0,0,0,4.232-1.451c.945-.973,1.412-2.6,1.412-4.882V15.586a7.638,7.638,0,0,0-1.152-4.71A4.362,4.362,0,0,0,50.7,9.419H46.172ZM22.83,60.8,21.117,48.9l-1.045-7.6s-.463,7.768-3.711,7.768H10.43L8.723,60.8H0L9.744.856h12.74L32.236,60.8ZM11.541,40.935H20.01L15.816,11.3h-.172Z" transform="translate(26.001 44.001)"/>
</svg>
