<?xml version="1.0" encoding="utf-8"?>
<!-- Generator: Adobe Illustrator 23.0.1, SVG Export Plug-In . SVG Version: 6.00 Build 0)  -->
<svg version="1.1" id="Layer_1" xmlns="http://www.w3.org/2000/svg" xmlns:xlink="http://www.w3.org/1999/xlink" x="0px" y="0px"
	 viewBox="0 0 1200 1200" style="enable-background:new 0 0 1200 1200;" xml:space="preserve">
<style type="text/css">
	.st0{fill:#C7C7C7;}
	.st1{fill:#00DAD0;}
</style>
<path class="st0" d="M1110.5,865.6c-63,53.8-304.8,5.4-568.2-117.4C272.4,622.3,76.9,463.4,87.6,382.3l-75.3-35.6
	C-36,459.2,184.7,671.1,508,821.8c317.5,148.1,616.6,182.4,679.3,80.1L1110.5,865.6z"/>
<path class="st0" d="M1110.5,865.6c-63,53.8-304.8,5.4-568.2-117.4C272.4,622.3,76.9,463.4,87.6,382.3l-75.3-35.6
	C-36,459.2,184.7,671.1,508,821.8c317.5,148.1,616.6,182.4,679.3,80.1L1110.5,865.6z"/>
<path class="st1" d="M554.5,736c43.3,20.2,85.9,38.3,127.4,54.4c28.8-16.6,57.6-33.2,86.4-49.9c0.6-0.4,1.2-0.8,2.4-1.4
	c-1.2-0.6-2-1.2-3-1.8c-33.9-19.5-68.1-39.2-102-58.9c-1.8-1.2-3.3-1-5.1,0c-11.8,6.9-23.6,13.6-35.3,20.5c-1.4,0.8-2.6,1.2-4.3,0.2
	c-24-13.8-47.9-27.4-71.9-41.2c-0.6-0.2-1-0.4-1.8-1c13.4-7.9,26.6-15.6,40-23.4c-0.6-0.4-1-1-1.4-1.2c-16.3-9.3-32.3-18.7-48.6-28
	c-1.6-1-3-1-4.9,0c-9.1,5.3-18.3,10.8-27.4,15.8c-1,0.6-2.8,0.8-3.9,0.2c-24.2-13.8-48.3-27.8-72.5-41.6c-0.4,0-0.6-0.4-1.2-0.8
	c10.6-6.1,21.1-12.2,31.9-18.5c-56.9-32.9-113.6-65.6-170.6-98.5c1-0.6,1.6-1.2,2.4-1.6c79.8-46.1,159.5-92,239.3-138.1
	c25.6-14.6,51.2-29.5,76.8-44.3c2.2-1.2,4.1-1.4,6.3,0c81.9,46.7,163.7,93.2,245.6,140c17.3,10,34.7,19.7,52,29.7c1,0.4,1.8,1,3,1.8
	c-7.9,4.7-15.6,9.1-23.4,13.6c-18.3,10.6-36.8,21.3-55.3,32.1c-1.8,1-3.3,1-5.1,0c-70.5-40.6-141-80.9-211.3-121.5
	c-6.1-3.5-10.2-3.7-16.5,0c-49.6,29.1-99.3,57.7-149.1,86.3c-0.8,0.6-1.6,1.2-3,2c2,1,3.7,2,5.3,3c27.4,15.6,54.9,31.5,82.1,47.3
	c1.8,1,3.3,1,5.1,0c13.8-7.9,27.6-16,41.4-24c1.4-0.8,2.4-1.2,4.1-0.2c23.8,13.8,47.7,27.4,71.5,41c0.8,0.6,1.4,1,2.4,1.6
	c-15.4,8.9-30.5,17.7-46.1,26.8c4.9,2.8,9.3,5.3,13.8,7.9c12.2,7.1,24.4,14,36.6,21.1c1.8,1,3.3,1.2,5.1,0
	c11-6.5,21.9-12.8,32.9-19.1c1-0.4,2.8-0.8,3.9-0.2c24.4,13.8,48.8,27.6,72.9,41.6c0.4,0.2,0.4,0.4,1,0.8
	c-12.4,7.3-24.8,14.6-37.6,21.9c62.8,36.2,125.3,72.3,188.3,108.7c-1,0.6-1.6,1.2-2.4,1.6c-49.3,28.5-98.6,56.8-147.9,85.3
	c93.8,29.9,176.7,46.8,238.8,48.8c4.7-2.7,9.4-5.4,14.1-8.1c2.2-1.4,3-2.8,3-5.5c0-82.7,0-165.6,0-248.3c0-42.1,0-83.9,0-125.5
	c0-41,0-81.9,0-122.9c0-2.6-0.8-4.1-3-5.3c-7.9-4.3-15.6-8.9-23.4-13.4c-60.9-35.1-122.1-70.3-183.2-105.6
	c-74.8-43.1-149.5-86.1-224.3-129.4c-1.8-1-3.3-1-5.1,0c-36,20.7-72.1,41.6-108.1,62.4c-49.8,28.8-99.7,57.5-149.5,86.3
	c-57.9,33.3-115.6,66.6-173.3,100c-2.2,1.4-3,2.8-3,5.3c0,40.6,0,81.1,0,121.7C244,564.3,384.5,656.7,554.5,736z"/>
<path class="st1" d="M1055.2,642.2c0,24.9,0,49.8,0,74.8c55.8,54.3,81.8,101.9,67.1,133.5c-35.6,76.3-295.2,30.5-579.9-102.3
	S55.6,445.9,91.2,369.7c10.9-23.4,43.1-35.3,90.6-36.7c28.5-16.5,57.1-32.9,85.6-49.4c-131.3-16.3-227,2.9-254.2,61
	C-38.9,456.4,182.6,670.1,508,821.8s631.5,184.1,683.6,72.2C1220.5,832,1165.4,738.8,1055.2,642.2z"/>
</svg>
