<?xml version="1.0" encoding="utf-8"?>
<!-- Svg Vector Icons : http://www.onlinewebfonts.com/icon -->
<!DOCTYPE svg PUBLIC "-//W3C//DTD SVG 1.1//EN" "http://www.w3.org/Graphics/SVG/1.1/DTD/svg11.dtd">
<svg version="1.1" xmlns="http://www.w3.org/2000/svg" xmlns:xlink="http://www.w3.org/1999/xlink" x="0px" y="0px" viewBox="0 0 1000 1000" enable-background="new 0 0 1000 1000" xml:space="preserve">
<metadata> Svg Vector Icons : http://www.onlinewebfonts.com/icon </metadata>
<g><path d="M500,10C229.4,10,10,229.4,10,500c0,270.6,219.4,490,490,490c270.6,0,490-219.4,490-490C990,229.4,770.6,10,500,10z M496.9,786.9c-28.4,0-51.5-22.6-51.5-50.5c0-27.9,23.1-50.5,51.5-50.5c28.4,0,51.5,22.6,51.5,50.5C548.4,764.3,525.3,786.9,496.9,786.9z M691.1,442c-14.1,22.3-44.3,52.7-90.4,91c-23.9,19.9-38.7,35.9-44.5,48c-5.8,12.1-8.4,33.7-7.9,64.9H445.4c-0.3-14.8-0.4-23.8-0.4-27c0-33.3,5.5-60.7,16.5-82.2c11-21.5,33.1-45.7,66.1-72.5c33-26.9,52.9-44.5,59.3-52.8c9.9-13.2,14.9-27.7,14.9-43.5c0-22-8.9-40.8-26.5-56.5c-17.6-15.7-41.4-23.5-71.3-23.5c-28.8,0-52.9,8.2-72.3,24.5c-19.4,16.3-36,52.4-40,74.7c-3.7,21-105.2,29.9-104-12.7c1.2-42.6,23.5-89,61.5-122.6c38.1-33.6,88-50.4,149.9-50.4c65.1,0,116.9,17,155.3,51c38.5,34,57.7,73.6,57.7,118.7C712.2,396.1,705.2,419.7,691.1,442z"/></g>
</svg>